<svg width="66" height="64" viewBox="0 0 66 64" fill="none" xmlns="http://www.w3.org/2000/svg">
<g clip-path="url(#clip0_2073_237)">
<mask id="mask0_2073_237" style="mask-type:luminance" maskUnits="userSpaceOnUse" x="0" y="0" width="66" height="64">
<path d="M66 32C66 14.3269 51.2254 0 33 0C14.7746 0 0 14.3269 0 32C0 49.6731 14.7746 64 33 64C51.2254 64 66 49.6731 66 32Z" fill="white"/>
</mask>
<g mask="url(#mask0_2073_237)">
<path d="M66 0H0V64H66V0Z" fill="#144272"/>
<path d="M16.5 8H49.5V12H53.625V24H57.75V32H53.625V44H49.5V48H37.125V52H53.625V56H57.75V64H8.25V56H12.375V52H28.875V48H16.5V44H12.375V32H8.25V24H12.375V12H16.5V8Z" fill="#E0B687"/>
<path d="M16.5 8H49.5V12H53.625V24H57.75V32H53.625V44H49.5V48H16.5V44H12.375V32H8.25V24H12.375V12H16.5V8Z" fill="white" fill-opacity="0.1"/>
<path d="M41.25 52H53.625V56H57.75V64H8.25V56H12.375V52H24.75V56H41.25V52Z" fill="#FFD969"/>
<path d="M12.375 52H16.5V56H12.375V52ZM8.25 56H12.375V60H8.25V56ZM12.375 60H16.5V64H12.375V60ZM16.5 56H20.625V60H16.5V56ZM20.625 52H24.75V56H20.625V52ZM20.625 60H24.75V64H20.625V60ZM24.75 56H28.875V60H24.75V56ZM28.875 60H33V64H28.875V60ZM33 56H37.125V60H33V56ZM37.125 60H41.25V64H37.125V60ZM41.25 56H45.375V60H41.25V56ZM45.375 60H49.5V64H45.375V60ZM45.375 52H49.5V56H45.375V52ZM49.5 56H53.625V60H49.5V56ZM53.625 60H57.75V64H53.625V60Z" fill="white" fill-opacity="0.2"/>
<path d="M24.75 20H20.625V28H28.875V24H24.75V20ZM45.375 20H41.25V28H49.5V24H45.375V20Z" fill="white"/>
<path d="M20.625 24H24.75V28H20.625V24ZM41.25 24H45.375V28H41.25V24Z" fill="#876658"/>
<path fill-rule="evenodd" clip-rule="evenodd" d="M57.75 20H8.25V24H12.375V32H28.875V28H37.125V32H53.625V24H57.75V20ZM49.5 24H37.125V28H49.5V24ZM28.875 28H16.5V24H28.875V28Z" fill="#323232"/>
<path d="M16.5 24H28.875V28H16.5V24Z" fill="black" fill-opacity="0.3"/>
<path d="M8.25 20H12.375V24H8.25V20ZM28.875 20H37.125V24H28.875V20ZM53.625 20H57.75V24H53.625V20Z" fill="white" fill-opacity="0.2"/>
<path d="M37.125 24H49.5V28H37.125V24Z" fill="black" fill-opacity="0.3"/>
<path d="M24.75 36V40H28.875V44H37.125V40H41.25V36H24.75Z" fill="#D29985"/>
<path d="M53.625 4H12.375V8H8.25V24H12.375V12H53.625V24H57.75V8H53.625V4ZM8.25 32H12.375V44H16.5V48H8.25V32ZM49.5 44H53.625V32H57.75V48H49.5V44Z" fill="#BD1700"/>
</g>
</g>
<defs>
<clipPath id="clip0_2073_237">
<rect width="66" height="64" fill="white"/>
</clipPath>
</defs>
</svg>
